<svg width="96" height="105" viewBox="0 0 96 105" fill="none" xmlns="http://www.w3.org/2000/svg">
<path fill-rule="evenodd" clip-rule="evenodd" d="M23 24.7299C23 38.3878 34.0719 49.4597 47.7299 49.4597C61.3878 49.4597 72.4597 38.3878 72.4597 24.7299C72.4597 11.0719 61.3878 5.96046e-07 47.7299 0C34.0719 -5.96046e-07 23 11.0719 23 24.7299ZM63.3264 27.1439C63.3264 30.0949 62.889 33.0088 62.0141 35.8857L61.7471 36.7977L56.5866 34.9737L56.8313 34.1284C57.5727 31.4444 57.9435 28.9976 57.9435 26.788C57.9435 24.6082 57.5876 22.7397 56.8758 21.1826C56.164 19.6404 55.252 18.8693 54.1398 18.8693C53.4132 18.8693 52.7755 19.2104 52.2268 19.8925C51.6782 20.5895 51.2111 21.4866 50.8255 22.584C50.4548 23.6813 50.084 24.8899 49.7133 26.2097C49.3426 27.5443 48.9125 28.8789 48.4232 30.2136C47.9338 31.5482 47.3703 32.7642 46.7327 33.8615C46.095 34.9589 45.2423 35.8486 44.1746 36.5308C43.1218 37.2277 41.9058 37.5762 40.5267 37.5762C39.6369 37.5762 38.7546 37.4205 37.8797 37.1091C37.0196 36.8125 36.1669 36.3009 35.3217 35.5743C34.4764 34.8625 33.735 33.9727 33.0973 32.905C32.4745 31.8522 31.9629 30.5027 31.5625 28.8567C31.1769 27.2255 30.9842 25.3941 30.9842 23.3625C30.9842 21.3309 31.1695 19.4995 31.5402 17.8683C31.9258 16.2371 32.4745 14.5095 33.1863 12.6856L33.4977 11.8625L38.8807 13.7533L38.547 14.6208C37.2124 18.3725 36.5451 21.4644 36.5451 23.8964C36.5451 26.18 36.8936 28.0263 37.5905 29.435C38.2875 30.8586 39.2069 31.5704 40.3487 31.5704C40.9864 31.5704 41.5573 31.3554 42.0615 30.9254C42.5657 30.4953 42.9883 29.917 43.3294 29.1903C43.6853 28.4637 44.0115 27.6259 44.3081 26.6768C44.6047 25.7426 44.8939 24.7564 45.1756 23.7184C45.4574 22.6804 45.7614 21.6423 46.0876 20.6043C46.4138 19.5663 46.8068 18.5727 47.2665 17.6236C47.7262 16.6894 48.2452 15.859 48.8236 15.1324C49.4019 14.4057 50.1211 13.8274 50.9812 13.3974C51.8561 12.9673 52.8274 12.7523 53.8951 12.7523C56.5644 12.7523 58.8036 14.0572 60.6127 16.6672C61.4885 17.9379 62.1524 19.4119 62.6042 21.0892C63.0857 22.8766 63.3264 24.8948 63.3264 27.1439Z" fill="white"/>
<path d="M15.8423 68.4932C18.1095 68.4932 20.3483 68.8293 22.5586 69.5015L23.2593 69.7065L21.8579 73.6714L21.2085 73.4834C19.1463 72.9137 17.2664 72.6289 15.5688 72.6289C13.894 72.6289 12.4585 72.9023 11.2622 73.4492C10.0773 73.9961 9.48486 74.6968 9.48486 75.5513C9.48486 76.1095 9.74691 76.5994 10.271 77.021C10.8065 77.4425 11.4958 77.8014 12.3389 78.0977C13.182 78.3825 14.1105 78.6673 15.1245 78.9521C16.1499 79.237 17.1753 79.5674 18.2007 79.9434C19.2261 80.3193 20.1603 80.7523 21.0034 81.2422C21.8465 81.7321 22.5301 82.3872 23.0542 83.2075C23.5897 84.0164 23.8574 84.9507 23.8574 86.0103C23.8574 86.6938 23.7378 87.3717 23.4985 88.0439C23.2707 88.7048 22.8776 89.3599 22.3193 90.0093C21.7725 90.6587 21.0889 91.2284 20.2686 91.7183C19.4596 92.1968 18.4229 92.5898 17.1582 92.8975C15.9049 93.1937 14.4979 93.3418 12.937 93.3418C11.3761 93.3418 9.96908 93.1994 8.71582 92.9146C7.46257 92.6183 6.13525 92.1968 4.73389 91.6499L4.10156 91.4106L5.5542 87.2749L6.2207 87.5312C9.10319 88.5566 11.4787 89.0693 13.3472 89.0693C15.1017 89.0693 16.5202 88.8016 17.6025 88.2661C18.6963 87.7306 19.2432 87.0243 19.2432 86.147C19.2432 85.6571 19.078 85.2184 18.7476 84.8311C18.4172 84.4437 17.9728 84.119 17.4146 83.8569C16.8563 83.5835 16.2126 83.3328 15.4834 83.105C14.7656 82.8771 14.008 82.6549 13.2104 82.4385C12.4129 82.222 11.6154 81.9884 10.8179 81.7378C10.0203 81.4871 9.257 81.1852 8.52783 80.832C7.81006 80.4788 7.17204 80.0801 6.61377 79.6357C6.0555 79.1914 5.61117 78.6388 5.28076 77.978C4.95036 77.3058 4.78516 76.5596 4.78516 75.7393C4.78516 73.6885 5.78776 71.9681 7.79297 70.5781C9.80957 69.1882 12.4927 68.4932 15.8423 68.4932ZM47.2801 68.7153H51.5867V93H47.2801V82.4556H34.2918V93H29.9852V68.7153H34.2918V78.4907H47.2801V68.7153ZM69.6603 93.3418C63.2117 93.3418 59.714 91.0859 59.1671 86.5742C59.1101 86.0843 59.0816 85.4634 59.0816 84.7114V84.4893V68.7153H63.3883V84.1133C63.3883 84.9678 63.468 85.6855 63.6275 86.2666C63.7984 86.8363 64.1345 87.3604 64.6358 87.8389C65.741 88.8984 67.4158 89.4282 69.6603 89.4282C71.2667 89.4282 72.5997 89.1434 73.6593 88.5737C74.7188 88.0041 75.3967 87.2008 75.693 86.1641C75.8411 85.6628 75.9151 84.9792 75.9151 84.1133V68.7153H80.1876C80.1876 72.27 80.1876 75.181 80.1876 77.4482C80.199 79.7041 80.2047 81.151 80.2047 81.7891C80.2047 82.4157 80.2047 82.9227 80.2047 83.3101C80.2161 83.6974 80.2218 84.0164 80.2218 84.2671C80.2218 84.8026 80.2047 85.2868 80.1705 85.7197C80.1477 86.1413 80.0566 86.6825 79.8971 87.3433C79.749 88.0041 79.5382 88.5908 79.2647 89.1035C79.0027 89.6048 78.6039 90.1346 78.0685 90.6929C77.5444 91.2511 76.9177 91.7126 76.1886 92.0771C75.4708 92.4417 74.5536 92.7437 73.4371 92.9829C72.3206 93.2222 71.0616 93.3418 69.6603 93.3418ZM88.2465 68.7153H92.5531V93H88.2465V68.7153Z" fill="white"/>
</svg>
